# xmcd CD database file
#
# Track frame offsets:
#	150
#	20310
#	39902
#	59467
#	77785
#	82895
#	98195
#	123590
#	136520
#	158022
#	176947
#	181925
#	202057
#	224742
#
# Disc length: 3272 seconds
#
# Revision: 2
# Processed by: cddbd v1.4PL0 Copyright (c) Steve Scherf et al.
# Submitted via: CDex 1.50Beta7
#
DISCID=bb0cc60e
DTITLE=Vybe - Vybe
DYEAR=1900
DGENRE=RnB
TTITLE0=Take It to the Front
TTITLE1=Warm Summer Daze
TTITLE2=I Can't Fight Anymore
TTITLE3=I like It
TTITLE4=I Don't Like It (Interlude)
TTITLE5=All My Love
TTITLE6=Me
TTITLE7=If I Cry
TTITLE8=Tell Me
TTITLE9=Knocks Me Off My Feet
TTITLE10=Mama's on the Phone (Interlude)
TTITLE11=Funky Low Down Feeling
TTITLE12=Love Is All We Need
TTITLE13=Stay
EXTD=
EXTT0=
EXTT1=
EXTT2=
EXTT3=
EXTT4=
EXTT5=
EXTT6=
EXTT7=
EXTT8=
EXTT9=
EXTT10=
EXTT11=
EXTT12=
EXTT13=
PLAYORDER=
